<mxfile host="app.diagrams.net" agent="Mozilla/5.0 (Windows NT 10.0; Win64; x64) AppleWebKit/537.36 (KHTML, like Gecko) Chrome/139.0.0.0 Safari/537.36" version="28.1.0">
  <diagram name="Page-1" id="929967ad-93f9-6ef4-fab6-5d389245f69c">
    <mxGraphModel dx="3438.5" dy="1584" grid="1" gridSize="10" guides="1" tooltips="1" connect="1" arrows="1" fold="1" page="1" pageScale="1.5" pageWidth="1169" pageHeight="826" background="none" math="0" shadow="0">
      <root>
        <mxCell id="0" style=";html=1;" />
        <mxCell id="1" style=";html=1;" parent="0" />
        <mxCell id="1672d66443f91eb5-23" value="Block Definition Diagram for ePrescription Manager App" style="text;strokeColor=none;fillColor=none;html=1;fontSize=24;fontStyle=1;verticalAlign=middle;align=center;" parent="1" vertex="1">
          <mxGeometry x="-820" y="40" width="1510" height="40" as="geometry" />
        </mxCell>
        <mxCell id="Wz-yfDFZc7wDXekqJ1n8-1" value="&lt;p style=&quot;margin:0px;margin-top:4px;margin-left:10px;text-align:left;&quot;&gt;&lt;b&gt;bdd&lt;/b&gt;&amp;nbsp;[package] ePrescription Manager App&lt;/p&gt;" style="html=1;shape=mxgraph.sysml.package;labelX=244.83;align=left;spacingLeft=10;overflow=fill;recursiveResize=0;" parent="1" vertex="1">
          <mxGeometry x="-876.5" y="130" width="1700" height="710" as="geometry" />
        </mxCell>
        <mxCell id="Wz-yfDFZc7wDXekqJ1n8-3" value="&lt;span style=&quot;font-weight: normal;&quot;&gt;&amp;lt;&amp;lt;block&amp;gt;&amp;gt;&lt;/span&gt;&lt;div&gt;Frontend Layer&lt;/div&gt;" style="strokeColor=inherit;fillColor=inherit;gradientColor=inherit;shape=rect;fontStyle=1;html=1;whiteSpace=wrap;align=center;" parent="Wz-yfDFZc7wDXekqJ1n8-1" vertex="1">
          <mxGeometry x="150" y="120" width="160" height="60" as="geometry" />
        </mxCell>
        <mxCell id="f8R9u9px-EH5b3UmAq_i-1" value="&lt;span style=&quot;font-weight: normal;&quot;&gt;&amp;lt;&amp;lt;block&amp;gt;&amp;gt;&lt;/span&gt;&lt;div&gt;API Layer&lt;/div&gt;" style="strokeColor=inherit;fillColor=inherit;gradientColor=inherit;shape=rect;fontStyle=1;html=1;whiteSpace=wrap;align=center;" vertex="1" parent="Wz-yfDFZc7wDXekqJ1n8-1">
          <mxGeometry x="620" y="120" width="150" height="60" as="geometry" />
        </mxCell>
        <mxCell id="f8R9u9px-EH5b3UmAq_i-2" value="&lt;span style=&quot;font-weight: normal;&quot;&gt;&amp;lt;&amp;lt;block&amp;gt;&amp;gt;&lt;/span&gt;&lt;div&gt;Data Layer&lt;/div&gt;" style="strokeColor=inherit;fillColor=inherit;gradientColor=inherit;shape=rect;fontStyle=1;html=1;whiteSpace=wrap;align=center;" vertex="1" parent="Wz-yfDFZc7wDXekqJ1n8-1">
          <mxGeometry x="1370" y="95" width="160" height="55" as="geometry" />
        </mxCell>
        <mxCell id="f8R9u9px-EH5b3UmAq_i-4" style="edgeStyle=orthogonalEdgeStyle;rounded=0;orthogonalLoop=1;jettySize=auto;html=1;endArrow=block;endFill=0;endSize=10;" edge="1" parent="Wz-yfDFZc7wDXekqJ1n8-1" source="f8R9u9px-EH5b3UmAq_i-3" target="Wz-yfDFZc7wDXekqJ1n8-3">
          <mxGeometry relative="1" as="geometry" />
        </mxCell>
        <mxCell id="f8R9u9px-EH5b3UmAq_i-3" value="&lt;span style=&quot;font-weight: normal;&quot;&gt;&amp;lt;&amp;lt;block&amp;gt;&amp;gt;&lt;/span&gt;&lt;div&gt;Authentication&lt;/div&gt;" style="strokeColor=inherit;fillColor=inherit;gradientColor=inherit;shape=rect;fontStyle=1;html=1;whiteSpace=wrap;align=center;" vertex="1" parent="Wz-yfDFZc7wDXekqJ1n8-1">
          <mxGeometry x="150" y="230" width="160" height="60" as="geometry" />
        </mxCell>
        <mxCell id="f8R9u9px-EH5b3UmAq_i-13" style="edgeStyle=orthogonalEdgeStyle;rounded=0;orthogonalLoop=1;jettySize=auto;html=1;entryX=0;entryY=0.5;entryDx=0;entryDy=0;endSize=10;endArrow=block;endFill=0;" edge="1" parent="Wz-yfDFZc7wDXekqJ1n8-1" source="f8R9u9px-EH5b3UmAq_i-5" target="f8R9u9px-EH5b3UmAq_i-7">
          <mxGeometry relative="1" as="geometry" />
        </mxCell>
        <mxCell id="f8R9u9px-EH5b3UmAq_i-5" value="&lt;span style=&quot;font-weight: normal;&quot;&gt;&amp;lt;&amp;lt;block&amp;gt;&amp;gt;&lt;/span&gt;&lt;div&gt;Pharmacy Dashboard&lt;/div&gt;" style="strokeColor=inherit;fillColor=inherit;gradientColor=inherit;shape=rect;fontStyle=1;html=1;whiteSpace=wrap;align=center;" vertex="1" parent="Wz-yfDFZc7wDXekqJ1n8-1">
          <mxGeometry x="20" y="570" width="160" height="60" as="geometry" />
        </mxCell>
        <mxCell id="f8R9u9px-EH5b3UmAq_i-14" style="edgeStyle=orthogonalEdgeStyle;rounded=0;orthogonalLoop=1;jettySize=auto;html=1;entryX=1;entryY=0.5;entryDx=0;entryDy=0;endArrow=block;endFill=0;endSize=10;" edge="1" parent="Wz-yfDFZc7wDXekqJ1n8-1" source="f8R9u9px-EH5b3UmAq_i-6" target="f8R9u9px-EH5b3UmAq_i-7">
          <mxGeometry relative="1" as="geometry" />
        </mxCell>
        <mxCell id="f8R9u9px-EH5b3UmAq_i-6" value="&lt;span style=&quot;font-weight: normal;&quot;&gt;&amp;lt;&amp;lt;block&amp;gt;&amp;gt;&lt;/span&gt;&lt;div&gt;Doctor Dashboard&lt;/div&gt;" style="strokeColor=inherit;fillColor=inherit;gradientColor=inherit;shape=rect;fontStyle=1;html=1;whiteSpace=wrap;align=center;" vertex="1" parent="Wz-yfDFZc7wDXekqJ1n8-1">
          <mxGeometry x="280" y="570" width="160" height="60" as="geometry" />
        </mxCell>
        <mxCell id="f8R9u9px-EH5b3UmAq_i-12" style="edgeStyle=orthogonalEdgeStyle;rounded=0;orthogonalLoop=1;jettySize=auto;html=1;entryX=0.5;entryY=1;entryDx=0;entryDy=0;endSize=10;endArrow=block;endFill=0;" edge="1" parent="Wz-yfDFZc7wDXekqJ1n8-1" source="f8R9u9px-EH5b3UmAq_i-7" target="f8R9u9px-EH5b3UmAq_i-8">
          <mxGeometry relative="1" as="geometry" />
        </mxCell>
        <mxCell id="f8R9u9px-EH5b3UmAq_i-7" value="&lt;span style=&quot;font-weight: normal;&quot;&gt;&amp;lt;&amp;lt;block&amp;gt;&amp;gt;&lt;/span&gt;&lt;div&gt;Shared Components&lt;/div&gt;&lt;div&gt;( Navbar and Forms )&lt;/div&gt;" style="strokeColor=inherit;fillColor=inherit;gradientColor=inherit;shape=rect;fontStyle=1;html=1;whiteSpace=wrap;align=center;" vertex="1" parent="Wz-yfDFZc7wDXekqJ1n8-1">
          <mxGeometry x="150" y="450" width="160" height="60" as="geometry" />
        </mxCell>
        <mxCell id="f8R9u9px-EH5b3UmAq_i-11" style="edgeStyle=orthogonalEdgeStyle;rounded=0;orthogonalLoop=1;jettySize=auto;html=1;endArrow=block;endFill=0;endSize=10;" edge="1" parent="Wz-yfDFZc7wDXekqJ1n8-1" source="f8R9u9px-EH5b3UmAq_i-8" target="f8R9u9px-EH5b3UmAq_i-3">
          <mxGeometry relative="1" as="geometry" />
        </mxCell>
        <mxCell id="f8R9u9px-EH5b3UmAq_i-8" value="&lt;span style=&quot;font-weight: normal;&quot;&gt;&amp;lt;&amp;lt;block&amp;gt;&amp;gt;&lt;/span&gt;&lt;div&gt;React Router&lt;/div&gt;&lt;div&gt;and&lt;/div&gt;&lt;div&gt;State Management&lt;/div&gt;" style="strokeColor=inherit;fillColor=inherit;gradientColor=inherit;shape=rect;fontStyle=1;html=1;whiteSpace=wrap;align=center;" vertex="1" parent="Wz-yfDFZc7wDXekqJ1n8-1">
          <mxGeometry x="150" y="330" width="160" height="80" as="geometry" />
        </mxCell>
        <mxCell id="f8R9u9px-EH5b3UmAq_i-19" value="&lt;span style=&quot;font-weight: normal;&quot;&gt;&amp;lt;&amp;lt;block&amp;gt;&amp;gt;&lt;/span&gt;&lt;div&gt;External Systems&lt;/div&gt;&lt;div&gt;( AWS EC2,&amp;nbsp;&lt;span style=&quot;background-color: transparent; color: light-dark(rgb(0, 0, 0), rgb(255, 255, 255));&quot;&gt;GitHub,&amp;nbsp;&lt;/span&gt;&lt;span style=&quot;background-color: transparent; color: light-dark(rgb(0, 0, 0), rgb(255, 255, 255));&quot;&gt;MongoDB,&amp;nbsp;&lt;/span&gt;&lt;span style=&quot;background-color: transparent; color: light-dark(rgb(0, 0, 0), rgb(255, 255, 255));&quot;&gt;JIRA )&lt;/span&gt;&lt;/div&gt;" style="strokeColor=inherit;fillColor=inherit;gradientColor=inherit;shape=rect;fontStyle=1;html=1;whiteSpace=wrap;align=center;" vertex="1" parent="Wz-yfDFZc7wDXekqJ1n8-1">
          <mxGeometry x="1280" y="470" width="346.5" height="180" as="geometry" />
        </mxCell>
        <mxCell id="f8R9u9px-EH5b3UmAq_i-39" style="edgeStyle=orthogonalEdgeStyle;rounded=0;orthogonalLoop=1;jettySize=auto;html=1;entryX=0.5;entryY=1;entryDx=0;entryDy=0;exitX=0.5;exitY=0;exitDx=0;exitDy=0;endArrow=block;endFill=0;endSize=10;" edge="1" parent="Wz-yfDFZc7wDXekqJ1n8-1" source="f8R9u9px-EH5b3UmAq_i-20" target="f8R9u9px-EH5b3UmAq_i-1">
          <mxGeometry relative="1" as="geometry" />
        </mxCell>
        <mxCell id="f8R9u9px-EH5b3UmAq_i-20" value="&lt;span style=&quot;font-weight: normal;&quot;&gt;&amp;lt;&amp;lt;block&amp;gt;&amp;gt;&lt;/span&gt;&lt;div&gt;Auth Routes&lt;/div&gt;" style="strokeColor=inherit;fillColor=inherit;gradientColor=inherit;shape=rect;fontStyle=1;html=1;whiteSpace=wrap;align=center;" vertex="1" parent="Wz-yfDFZc7wDXekqJ1n8-1">
          <mxGeometry x="403.5" y="240" width="160" height="60" as="geometry" />
        </mxCell>
        <mxCell id="f8R9u9px-EH5b3UmAq_i-38" style="edgeStyle=orthogonalEdgeStyle;rounded=0;orthogonalLoop=1;jettySize=auto;html=1;endArrow=block;endFill=0;endSize=10;" edge="1" parent="Wz-yfDFZc7wDXekqJ1n8-1" source="f8R9u9px-EH5b3UmAq_i-21" target="f8R9u9px-EH5b3UmAq_i-1">
          <mxGeometry relative="1" as="geometry" />
        </mxCell>
        <mxCell id="f8R9u9px-EH5b3UmAq_i-21" value="&lt;span style=&quot;font-weight: normal;&quot;&gt;&amp;lt;&amp;lt;block&amp;gt;&amp;gt;&lt;/span&gt;&lt;div&gt;Prescription Routes&lt;/div&gt;" style="strokeColor=inherit;fillColor=inherit;gradientColor=inherit;shape=rect;fontStyle=1;html=1;whiteSpace=wrap;align=center;" vertex="1" parent="Wz-yfDFZc7wDXekqJ1n8-1">
          <mxGeometry x="620" y="240" width="150" height="60" as="geometry" />
        </mxCell>
        <mxCell id="f8R9u9px-EH5b3UmAq_i-37" style="edgeStyle=orthogonalEdgeStyle;rounded=0;orthogonalLoop=1;jettySize=auto;html=1;exitX=0.5;exitY=0;exitDx=0;exitDy=0;endArrow=block;endFill=0;endSize=10;" edge="1" parent="Wz-yfDFZc7wDXekqJ1n8-1" source="f8R9u9px-EH5b3UmAq_i-22" target="f8R9u9px-EH5b3UmAq_i-1">
          <mxGeometry relative="1" as="geometry" />
        </mxCell>
        <mxCell id="f8R9u9px-EH5b3UmAq_i-22" value="&lt;span style=&quot;font-weight: normal;&quot;&gt;&amp;lt;&amp;lt;block&amp;gt;&amp;gt;&lt;/span&gt;&lt;div&gt;Pharmacy Routes&lt;/div&gt;" style="strokeColor=inherit;fillColor=inherit;gradientColor=inherit;shape=rect;fontStyle=1;html=1;whiteSpace=wrap;align=center;" vertex="1" parent="Wz-yfDFZc7wDXekqJ1n8-1">
          <mxGeometry x="820" y="240" width="160" height="60" as="geometry" />
        </mxCell>
        <mxCell id="f8R9u9px-EH5b3UmAq_i-45" style="edgeStyle=orthogonalEdgeStyle;rounded=0;orthogonalLoop=1;jettySize=auto;html=1;entryX=0.5;entryY=1;entryDx=0;entryDy=0;exitX=0.5;exitY=0;exitDx=0;exitDy=0;endArrow=block;endFill=0;endSize=10;" edge="1" parent="Wz-yfDFZc7wDXekqJ1n8-1" source="f8R9u9px-EH5b3UmAq_i-23" target="f8R9u9px-EH5b3UmAq_i-1">
          <mxGeometry relative="1" as="geometry" />
        </mxCell>
        <mxCell id="f8R9u9px-EH5b3UmAq_i-23" value="&lt;span style=&quot;font-weight: normal;&quot;&gt;&amp;lt;&amp;lt;block&amp;gt;&amp;gt;&lt;/span&gt;&lt;div&gt;Authentication Middleware&lt;/div&gt;" style="strokeColor=inherit;fillColor=inherit;gradientColor=inherit;shape=rect;fontStyle=1;html=1;whiteSpace=wrap;align=center;" vertex="1" parent="Wz-yfDFZc7wDXekqJ1n8-1">
          <mxGeometry x="1030" y="240" width="160" height="60" as="geometry" />
        </mxCell>
        <mxCell id="f8R9u9px-EH5b3UmAq_i-43" style="edgeStyle=orthogonalEdgeStyle;rounded=0;orthogonalLoop=1;jettySize=auto;html=1;entryX=0.5;entryY=1;entryDx=0;entryDy=0;endArrow=block;endFill=0;endSize=10;" edge="1" parent="Wz-yfDFZc7wDXekqJ1n8-1" source="f8R9u9px-EH5b3UmAq_i-24" target="f8R9u9px-EH5b3UmAq_i-23">
          <mxGeometry relative="1" as="geometry" />
        </mxCell>
        <mxCell id="f8R9u9px-EH5b3UmAq_i-24" value="&lt;span style=&quot;font-weight: normal;&quot;&gt;&amp;lt;&amp;lt;block&amp;gt;&amp;gt;&lt;/span&gt;&lt;div&gt;Controllers&amp;nbsp;&lt;/div&gt;&lt;div&gt;and&amp;nbsp;&lt;/div&gt;&lt;div&gt;Business Logic&lt;/div&gt;" style="strokeColor=inherit;fillColor=inherit;gradientColor=inherit;shape=rect;fontStyle=1;html=1;whiteSpace=wrap;align=center;" vertex="1" parent="Wz-yfDFZc7wDXekqJ1n8-1">
          <mxGeometry x="1020" y="370" width="180" height="90" as="geometry" />
        </mxCell>
        <mxCell id="f8R9u9px-EH5b3UmAq_i-28" style="edgeStyle=orthogonalEdgeStyle;rounded=0;orthogonalLoop=1;jettySize=auto;html=1;entryX=0.5;entryY=1;entryDx=0;entryDy=0;endSize=10;endArrow=block;endFill=0;" edge="1" parent="Wz-yfDFZc7wDXekqJ1n8-1" source="f8R9u9px-EH5b3UmAq_i-25" target="f8R9u9px-EH5b3UmAq_i-2">
          <mxGeometry relative="1" as="geometry" />
        </mxCell>
        <mxCell id="f8R9u9px-EH5b3UmAq_i-25" value="&lt;span style=&quot;font-weight: normal;&quot;&gt;&amp;lt;&amp;lt;block&amp;gt;&amp;gt;&lt;/span&gt;&lt;div&gt;User Model&lt;/div&gt;" style="strokeColor=inherit;fillColor=inherit;gradientColor=inherit;shape=rect;fontStyle=1;html=1;whiteSpace=wrap;align=center;" vertex="1" parent="Wz-yfDFZc7wDXekqJ1n8-1">
          <mxGeometry x="1250" y="235" width="160" height="60" as="geometry" />
        </mxCell>
        <mxCell id="f8R9u9px-EH5b3UmAq_i-29" style="edgeStyle=orthogonalEdgeStyle;rounded=0;orthogonalLoop=1;jettySize=auto;html=1;entryX=0.5;entryY=1;entryDx=0;entryDy=0;endArrow=block;endFill=0;endSize=10;" edge="1" parent="Wz-yfDFZc7wDXekqJ1n8-1" source="f8R9u9px-EH5b3UmAq_i-26" target="f8R9u9px-EH5b3UmAq_i-2">
          <mxGeometry relative="1" as="geometry" />
        </mxCell>
        <mxCell id="f8R9u9px-EH5b3UmAq_i-26" value="&lt;span style=&quot;font-weight: normal;&quot;&gt;&amp;lt;&amp;lt;block&amp;gt;&amp;gt;&lt;/span&gt;&lt;div&gt;Prescription Model&lt;/div&gt;" style="strokeColor=inherit;fillColor=inherit;gradientColor=inherit;shape=rect;fontStyle=1;html=1;whiteSpace=wrap;align=center;" vertex="1" parent="Wz-yfDFZc7wDXekqJ1n8-1">
          <mxGeometry x="1490" y="235" width="160" height="60" as="geometry" />
        </mxCell>
        <mxCell id="f8R9u9px-EH5b3UmAq_i-30" style="edgeStyle=orthogonalEdgeStyle;rounded=0;orthogonalLoop=1;jettySize=auto;html=1;entryX=0.5;entryY=1;entryDx=0;entryDy=0;endArrow=block;endFill=0;endSize=10;" edge="1" parent="Wz-yfDFZc7wDXekqJ1n8-1" source="f8R9u9px-EH5b3UmAq_i-27" target="f8R9u9px-EH5b3UmAq_i-25">
          <mxGeometry relative="1" as="geometry" />
        </mxCell>
        <mxCell id="f8R9u9px-EH5b3UmAq_i-31" style="edgeStyle=orthogonalEdgeStyle;rounded=0;orthogonalLoop=1;jettySize=auto;html=1;startArrow=none;startFill=0;startSize=10;endArrow=block;endFill=0;endSize=10;" edge="1" parent="Wz-yfDFZc7wDXekqJ1n8-1" source="f8R9u9px-EH5b3UmAq_i-27" target="f8R9u9px-EH5b3UmAq_i-26">
          <mxGeometry relative="1" as="geometry" />
        </mxCell>
        <mxCell id="f8R9u9px-EH5b3UmAq_i-27" value="&lt;span style=&quot;font-weight: normal;&quot;&gt;&amp;lt;&amp;lt;block&amp;gt;&amp;gt;&lt;/span&gt;&lt;div&gt;Database&lt;/div&gt;&lt;div&gt;( MongoDB )&lt;/div&gt;" style="strokeColor=inherit;fillColor=inherit;gradientColor=inherit;shape=rect;fontStyle=1;html=1;whiteSpace=wrap;align=center;" vertex="1" parent="Wz-yfDFZc7wDXekqJ1n8-1">
          <mxGeometry x="1370" y="365" width="160" height="60" as="geometry" />
        </mxCell>
      </root>
    </mxGraphModel>
  </diagram>
</mxfile>
